;TYPE=PLATED
;Layer: PTH_Through
;EasyEDA Pro v2.2.47.7, 2026-05-29 18:35:35
;Gerber Generator version 0.3
M48
METRIC,LZ,0000.00000
;Hole size 1 = 0.30500 METRIC
T01C0.30500
;Hole size 2 = 0.90000 METRIC
T02C0.90000
;Hole size 3 = 1.00000 METRIC
T03C1.00000
;Hole size 4 = 1.00000 METRIC
T04C1.00000
;Hole size 5 = 1.02000 METRIC
T05C1.02000
;Hole size 6 = 1.04999 METRIC
T06C1.04999
%
G05
G90
T01
X87.3454Y-66.7714
X108.58124Y-22.48276
X82.744Y-22.55757
T02
X74.803Y-66.421
X72.303Y-66.421
X77.303Y-66.421
T03
X84.201Y-57.023
X84.201Y-54.483
X84.201Y-51.943
X84.201Y-49.403
X84.201Y-46.863
X84.201Y-44.323
X84.201Y-41.783
X84.201Y-39.243
X84.201Y-36.703
X84.201Y-34.163
X84.201Y-31.623
X84.201Y-29.083
X84.201Y-26.543
X84.201Y-24.003
X84.201Y-21.463
X109.601Y-57.023
X109.601Y-54.483
X109.601Y-51.943
X109.601Y-49.403
X109.601Y-46.863
X109.601Y-44.323
X109.601Y-41.783
X109.601Y-39.243
X109.601Y-36.703
X109.601Y-34.163
X109.601Y-31.623
X109.601Y-29.083
X109.601Y-26.543
X109.601Y-24.003
X109.601Y-21.463
T04
X81.588Y-68.834
X84.488Y-64.034
X87.888Y-68.834
T05
X101.727Y-68.937
X101.727Y-71.477
X99.187Y-68.937
X99.187Y-71.477
X84.201Y-21.442
X84.201Y-23.982
X84.201Y-26.522
X84.201Y-29.062
X84.201Y-31.602
X84.201Y-34.142
X84.201Y-36.682
X84.201Y-39.222
X84.201Y-41.762
X84.201Y-44.302
X84.201Y-46.842
X84.201Y-49.382
X84.201Y-51.922
X84.201Y-54.462
X84.201Y-57.002
X109.601Y-21.442
X109.601Y-23.982
X109.601Y-26.522
X109.601Y-29.062
X109.601Y-31.602
X109.601Y-34.142
X109.601Y-36.682
X109.601Y-39.222
X109.601Y-41.762
X109.601Y-44.302
X109.601Y-46.842
X109.601Y-49.382
X109.601Y-51.922
X109.601Y-54.462
X109.601Y-57.002
T06
X116.586Y-52.832
X116.586Y-50.292
X116.586Y-47.752
X116.586Y-45.212
X116.586Y-42.672
X116.586Y-40.132
X116.586Y-37.592
X116.586Y-35.052
X116.586Y-32.512
X116.586Y-29.972
X116.586Y-27.432
X116.586Y-24.892
X116.586Y-22.352
X116.586Y-19.812
X116.586Y-17.272
X113.538Y-17.526
X113.538Y-20.066
X113.538Y-22.606
X113.538Y-25.146
X113.538Y-27.686
X113.538Y-30.226
X113.538Y-32.766
X113.538Y-35.306
X113.538Y-37.846
X113.538Y-40.386
X113.538Y-42.926
X113.538Y-45.466
X113.538Y-48.006
X113.538Y-50.546
X113.538Y-53.086
X77.216Y-56.642
X77.216Y-54.102
X77.216Y-51.562
X77.216Y-49.022
X77.216Y-46.482
X77.216Y-43.942
X77.216Y-41.402
X77.216Y-38.862
X77.216Y-36.322
X77.216Y-33.782
X77.216Y-31.242
X77.216Y-28.702
X77.216Y-26.162
X77.216Y-23.622
X77.216Y-21.082
X80.518Y-21.209
X80.518Y-23.749
X80.518Y-26.289
X80.518Y-28.829
X80.518Y-31.369
X80.518Y-33.909
X80.518Y-36.449
X80.518Y-38.989
X80.518Y-41.529
X80.518Y-44.069
X80.518Y-46.609
X80.518Y-49.149
X80.518Y-51.689
X80.518Y-54.229
X80.518Y-56.769
M30