G04 Layer: BoardOutlineLayer*
G04 EasyEDA Pro v2.2.47.7, 2026-05-29 18:35:35*
G04 Gerber Generator version 0.3*
G04 Scale: 100 percent, Rotated: No, Reflected: No*
G04 Dimensions in millimeters*
G04 Leading zeros omitted, absolute positions, 4 integers and 5 decimals*
G04 Generated by one-click*
G04 Object Configs: Pad,Via,Track,Text,Image,Dimension,BoardOutline,BoardCutout,CopperFilled,SolidRegion,FPCStiffener,Line,PlaneZone,ComponentProperty,ComponentSilkscreen,TearDrop*
G04 Layer Configs: 1,2,3,4,5,6,7,8,9,10,11,13,14,71,72,73,74,56*
G04 Copper Areas: 0*
%FSLAX45Y45*%
%MOMM*%
%ADD10C,0.003*%
%ADD11C,0.254*%
%ADD12C,0.9852*%
G75*


G04 PolygonModel Start*
G54D10*
G01X8738800Y-6993400D02*
G03X8788800Y-7043400I50000J0D01*
G01X8788800Y-7043400D02*
G03X8838800Y-6993400I0J50000D01*
G01X8838800Y-6993400D02*
G01X8838800Y-6773400D01*
G01X8838800Y-6773400D02*
G03X8788800Y-6723400I-50000J0D01*
G01X8788800Y-6723400D02*
G03X8738800Y-6773400I0J-50000D01*
G01X8738800Y-6773400D02*
G01X8738800Y-6993400D01*
G01X8558800Y-6453400D02*
G03X8608800Y-6403400I0J50000D01*
G01X8608800Y-6403400D02*
G03X8558800Y-6353400I-50000J0D01*
G01X8558800Y-6353400D02*
G01X8338800Y-6353400D01*
G01X8338800Y-6353400D02*
G03X8288800Y-6403400I0J-50000D01*
G01X8288800Y-6403400D02*
G03X8338800Y-6453400I50000J0D01*
G01X8338800Y-6453400D02*
G01X8558800Y-6453400D01*
G01X8158800Y-7063400D02*
G02X8108800Y-7013400I0J50000D01*
G01X8108800Y-7013400D02*
G01X8108800Y-6753400D01*
G01X8108800Y-6753400D02*
G02X8158800Y-6703400I50000J0D01*
G01X8158800Y-6703400D02*
G02X8208800Y-6753400I0J-50000D01*
G01X8208800Y-6753400D02*
G01X8208800Y-7013400D01*
G01X8208800Y-7013400D02*
G02X8158800Y-7063400I-50000J0D01*

G04 Rect Start*
G54D11*
G01X6540500Y-9715500D02*
G01X6540500Y-1016000D01*
G01X13411200Y-1016000D01*
G01X13411200Y-9715500D01*
G01X6540500Y-9715500D01*
G04 Rect End*

M02*

