G04 Layer: BottomLayer*
G04 EasyEDA Pro v2.2.47.7, 2026-05-29 18:35:35*
G04 Gerber Generator version 0.3*
G04 Scale: 100 percent, Rotated: No, Reflected: No*
G04 Dimensions in millimeters*
G04 Leading zeros omitted, absolute positions, 4 integers and 5 decimals*
G04 Generated by one-click*
G04 Object Configs: Pad,Via,Track,Text,Image,Dimension,BoardOutline,BoardCutout,CopperFilled,SolidRegion,FPCStiffener,Line,PlaneZone,ComponentProperty,ComponentSilkscreen,TearDrop*
G04 Layer Configs: 1,2,3,4,5,6,7,8,9,10,11,13,14,71,72,73,74,56*
G04 Copper Areas: 0*
%FSLAX45Y45*%
%MOMM*%
%ADD10R,1.37X1.37*%
%ADD11C,1.37*%
%ADD12C,1.408*%
%ADD13R,1.408X1.408*%
%ADD14O,2.2X4.4*%
%ADD15O,4.0X2.0*%
%ADD16O,2.0X4.0*%
%ADD17R,1.6X1.6*%
%ADD18C,1.6050*%
%ADD19C,1.6*%
%ADD20R,2.0X2.0*%
%ADD21C,2.0*%
%ADD22R,1.5748X1.6*%
%ADD23C,0.61*%
%ADD24C,0.254*%
G75*


G04 Pad Start*
G54D10*
G01X10172700Y-6893700D03*
G54D11*
G01X10172700Y-7147700D03*
G01X9918700Y-6893700D03*
G01X9918700Y-7147700D03*
G54D12*
G01X7480300Y-6642100D03*
G54D13*
G01X7230300Y-6642100D03*
G54D12*
G01X7730300Y-6642100D03*
G54D14*
G01X8158800Y-6883400D03*
G54D15*
G01X8448800Y-6403400D03*
G54D16*
G01X8788800Y-6883400D03*
G54D17*
G01X11658600Y-5283200D03*
G54D19*
G01X11658600Y-5029200D03*
G01X11658600Y-4775200D03*
G01X11658600Y-4521200D03*
G01X11658600Y-4267200D03*
G01X11658600Y-4013200D03*
G01X11658600Y-3759200D03*
G01X11658600Y-3505200D03*
G01X11658600Y-3251200D03*
G01X11658600Y-2997200D03*
G01X11658600Y-2743200D03*
G01X11658600Y-2489200D03*
G01X11658600Y-2235200D03*
G01X11658600Y-1981200D03*
G01X11658600Y-1727200D03*
G54D17*
G01X11353800Y-1752600D03*
G54D19*
G01X11353800Y-2006600D03*
G01X11353800Y-2260600D03*
G01X11353800Y-2514600D03*
G01X11353800Y-2768600D03*
G01X11353800Y-3022600D03*
G01X11353800Y-3276600D03*
G01X11353800Y-3530600D03*
G01X11353800Y-3784600D03*
G01X11353800Y-4038600D03*
G01X11353800Y-4292600D03*
G01X11353800Y-4546600D03*
G01X11353800Y-4800600D03*
G01X11353800Y-5054600D03*
G01X11353800Y-5308600D03*
G54D17*
G01X7721600Y-5664200D03*
G54D19*
G01X7721600Y-5410200D03*
G01X7721600Y-5156200D03*
G01X7721600Y-4902200D03*
G01X7721600Y-4648200D03*
G01X7721600Y-4394200D03*
G01X7721600Y-4140200D03*
G01X7721600Y-3886200D03*
G01X7721600Y-3632200D03*
G01X7721600Y-3378200D03*
G01X7721600Y-3124200D03*
G01X7721600Y-2870200D03*
G01X7721600Y-2616200D03*
G01X7721600Y-2362200D03*
G01X7721600Y-2108200D03*
G54D17*
G01X8051800Y-2120900D03*
G54D19*
G01X8051800Y-2374900D03*
G01X8051800Y-2628900D03*
G01X8051800Y-2882900D03*
G01X8051800Y-3136900D03*
G01X8051800Y-3390900D03*
G01X8051800Y-3644900D03*
G01X8051800Y-3898900D03*
G01X8051800Y-4152900D03*
G01X8051800Y-4406900D03*
G01X8051800Y-4660900D03*
G01X8051800Y-4914900D03*
G01X8051800Y-5168900D03*
G01X8051800Y-5422900D03*
G01X8051800Y-5676900D03*
G54D20*
G01X8420100Y-2144200D03*
G54D21*
G01X8420100Y-2398200D03*
G01X8420100Y-2652200D03*
G01X8420100Y-2906200D03*
G01X8420100Y-3160200D03*
G01X8420100Y-3414200D03*
G01X8420100Y-3668200D03*
G01X8420100Y-3922200D03*
G01X8420100Y-4176200D03*
G01X8420100Y-4430200D03*
G01X8420100Y-4684200D03*
G01X8420100Y-4938200D03*
G01X8420100Y-5192200D03*
G01X8420100Y-5446200D03*
G01X8420100Y-5700200D03*
G01X10960100Y-2144200D03*
G01X10960100Y-2398200D03*
G01X10960100Y-2652200D03*
G01X10960100Y-2906200D03*
G01X10960100Y-3160200D03*
G01X10960100Y-3414200D03*
G01X10960100Y-3668200D03*
G01X10960100Y-3922200D03*
G01X10960100Y-4176200D03*
G01X10960100Y-4430200D03*
G01X10960100Y-4684200D03*
G01X10960100Y-4938200D03*
G01X10960100Y-5192200D03*
G01X10960100Y-5446200D03*
G01X10960100Y-5700200D03*
G54D19*
G01X8420100Y-5702300D03*
G01X8420100Y-5448300D03*
G01X8420100Y-5194300D03*
G01X8420100Y-4940300D03*
G01X8420100Y-4686300D03*
G01X8420100Y-4432300D03*
G01X8420100Y-4178300D03*
G01X8420100Y-3924300D03*
G01X8420100Y-3670300D03*
G01X8420100Y-3416300D03*
G01X8420100Y-3162300D03*
G01X8420100Y-2908300D03*
G01X8420100Y-2654300D03*
G01X8420100Y-2400300D03*
G54D22*
G01X8420100Y-2146300D03*
G54D19*
G01X10960100Y-5702300D03*
G01X10960100Y-5448300D03*
G01X10960100Y-5194300D03*
G01X10960100Y-4940300D03*
G01X10960100Y-4686300D03*
G01X10960100Y-4432300D03*
G01X10960100Y-4178300D03*
G01X10960100Y-3924300D03*
G01X10960100Y-3670300D03*
G01X10960100Y-3416300D03*
G01X10960100Y-3162300D03*
G01X10960100Y-2908300D03*
G01X10960100Y-2654300D03*
G01X10960100Y-2400300D03*
G54D22*
G01X10960100Y-2146300D03*
G04 Pad End*

G04 Via Start*
G54D23*
G01X8734540Y-6677140D03*
G01X10858124Y-2248276D03*
G01X8274400Y-2255757D03*
G04 Via End*

G04 Track Start*
G54D24*
G01X9918700Y-6893700D02*
G01X8471200Y-5446200D01*
G01X8420100Y-5446200D01*
G01X10172700Y-6893700D02*
G01X8548000Y-5269000D01*
G01X8548000Y-4885222D01*
G01X8420100Y-4757322D01*
G01X8420100Y-4686300D01*
G01X9918700Y-6893700D02*
G01X9918700Y-7147700D01*
G01X10172700Y-6893700D02*
G01X10172700Y-7147700D01*
G01X11658600Y-1727200D02*
G01X11379200Y-1727200D01*
G01X11353800Y-1752600D01*
G01X10832200Y-2091222D02*
G01X10832200Y-2197178D01*
G01X10870711Y-2235689D01*
G01X11353800Y-1752600D02*
G01X11170822Y-1752600D01*
G01X10832200Y-2091222D01*
G04 Track End*

M02*

